HIERARCHY
ROOT Hips
{
	OFFSET 0.000000 89.005402 0.000000
	CHANNELS 6 Xposition Yposition Zposition Xrotation Yrotation Zrotation
	JOINT Spine
	{
		OFFSET 0.116900 10.681000 0.373400
		CHANNELS 3 Xrotation Yrotation Zrotation
		JOINT Spine1
		{
			OFFSET 0.000000 13.840401 0.053500
			CHANNELS 3 Xrotation Yrotation Zrotation
			JOINT Spine2
			{
				OFFSET 0.000000 14.712700 -0.366200
				CHANNELS 3 Xrotation Yrotation Zrotation
				JOINT Neck
				{
					OFFSET 0.000000 35.415497 -3.314200
					CHANNELS 3 Xrotation Yrotation Zrotation
					JOINT Head
					{
						OFFSET 0.000000 16.899200 1.218300
						CHANNELS 3 Xrotation Yrotation Zrotation
						JOINT HeadTop_End
						{
							OFFSET 0.000000 22.206207 2.192500
							CHANNELS 3 Xrotation Yrotation Zrotation
							End Site
							{
								OFFSET 0.000000 22.314178 0.000000
							}
						}
					}
				}
				JOINT LeftShoulder
				{
					OFFSET 12.896400 26.716293 -4.548400
					CHANNELS 3 Xrotation Yrotation Zrotation
					JOINT LeftArm
					{
						OFFSET 19.027000 -4.857010 -1.718400
						CHANNELS 3 Xrotation Yrotation Zrotation
						JOINT LeftForeArm
						{
							OFFSET 24.179897 0.000000 0.000000
							CHANNELS 3 Xrotation Yrotation Zrotation
							JOINT LeftHand
							{
								OFFSET 27.156403 0.000000 0.000000
								CHANNELS 3 Xrotation Yrotation Zrotation
								JOINT LeftHandIndex1
								{
									OFFSET 16.441200 0.000000 0.000000
									CHANNELS 3 Xrotation Yrotation Zrotation
									JOINT LeftHandIndex2
									{
										OFFSET 4.821899 0.000000 0.000000
										CHANNELS 3 Xrotation Yrotation Zrotation
										JOINT LeftHandIndex3
										{
											OFFSET 6.386497 0.000000 0.000000
											CHANNELS 3 Xrotation Yrotation Zrotation
											JOINT LeftHandIndex4
											{
												OFFSET 5.188988 0.000000 0.000000
												CHANNELS 3 Xrotation Yrotation Zrotation
												End Site
												{
													OFFSET -0.178703 5.185913 0.000177
												}
											}
										}
									}
								}
								JOINT LeftHandThumb1
								{
									OFFSET 6.534897 -5.032593 5.900300
									CHANNELS 3 Xrotation Yrotation Zrotation
									JOINT LeftHandThumb2
									{
										OFFSET 3.818176 -2.204422 2.204423
										CHANNELS 3 Xrotation Yrotation Zrotation
										JOINT LeftHandThumb3
										{
											OFFSET 3.252098 -1.877594 1.877601
											CHANNELS 3 Xrotation Yrotation Zrotation
											JOINT LeftHandThumb4
											{
												OFFSET 5.251778 -3.032120 3.032117
												CHANNELS 3 Xrotation Yrotation Zrotation
												End Site
												{
													OFFSET 0.000023 6.780014 0.000000
												}
											}
										}
									}
								}
							}
						}
					}
				}
				JOINT RightShoulder
				{
					OFFSET -12.896300 26.716293 -4.548400
					CHANNELS 3 Xrotation Yrotation Zrotation
					JOINT RightArm
					{
						OFFSET -19.027000 -4.857010 -1.718400
						CHANNELS 3 Xrotation Yrotation Zrotation
						JOINT RightForeArm
						{
							OFFSET -24.179897 0.000000 0.000000
							CHANNELS 3 Xrotation Yrotation Zrotation
							JOINT RightHand
							{
								OFFSET -27.156403 0.000000 0.000000
								CHANNELS 3 Xrotation Yrotation Zrotation
								JOINT RightHandThumb1
								{
									OFFSET -6.591202 -4.852203 5.988100
									CHANNELS 3 Xrotation Yrotation Zrotation
									JOINT RightHandThumb2
									{
										OFFSET -3.818176 -2.204422 2.204423
										CHANNELS 3 Xrotation Yrotation Zrotation
										JOINT RightHandThumb3
										{
											OFFSET -3.252098 -1.877594 1.877601
											CHANNELS 3 Xrotation Yrotation Zrotation
											JOINT RightHandThumb4
											{
												OFFSET -5.251778 -3.032120 3.032117
												CHANNELS 3 Xrotation Yrotation Zrotation
												End Site
												{
													OFFSET -0.000023 6.780014 0.000000
												}
											}
										}
									}
								}
								JOINT RightHandIndex1
								{
									OFFSET -16.029404 0.000000 0.000000
									CHANNELS 3 Xrotation Yrotation Zrotation
									JOINT RightHandIndex2
									{
										OFFSET -5.213303 0.000000 0.000000
										CHANNELS 3 Xrotation Yrotation Zrotation
										JOINT RightHandIndex3
										{
											OFFSET -6.386528 0.000000 0.000000
											CHANNELS 3 Xrotation Yrotation Zrotation
											JOINT RightHandIndex4
											{
												OFFSET -5.189026 0.000000 0.000000
												CHANNELS 3 Xrotation Yrotation Zrotation
												End Site
												{
													OFFSET 0.236702 5.183624 0.001972
												}
											}
										}
									}
								}
							}
						}
					}
				}
			}
		}
	}
	JOINT LeftUpLeg
	{
		OFFSET 14.073000 -7.904099 -1.463000
		CHANNELS 3 Xrotation Yrotation Zrotation
		JOINT LeftLeg
		{
			OFFSET -0.109806 -34.073280 4.093200
			CHANNELS 3 Xrotation Yrotation Zrotation
			JOINT LeftFoot
			{
				OFFSET 0.109806 -29.899420 -6.319000
				CHANNELS 3 Xrotation Yrotation Zrotation
				JOINT LeftToeBase
				{
					OFFSET 1.551100 -14.988700 20.535801
					CHANNELS 3 Xrotation Yrotation Zrotation
					JOINT LeftToe_End
					{
						OFFSET 0.221200 0.570800 13.248301
						CHANNELS 3 Xrotation Yrotation Zrotation
						End Site
						{
							OFFSET 0.000000 13.262435 0.000000
						}
					}
				}
			}
		}
	}
	JOINT RightUpLeg
	{
		OFFSET -13.839300 -7.904099 -1.463000
		CHANNELS 3 Xrotation Yrotation Zrotation
		JOINT RightLeg
		{
			OFFSET 0.109694 -34.073219 4.093300
			CHANNELS 3 Xrotation Yrotation Zrotation
			JOINT RightFoot
			{
				OFFSET -0.109694 -29.899384 -6.319200
				CHANNELS 3 Xrotation Yrotation Zrotation
				JOINT RightToeBase
				{
					OFFSET -1.551100 -14.988700 20.535801
					CHANNELS 3 Xrotation Yrotation Zrotation
					JOINT RightToe_End
					{
						OFFSET -0.221200 0.570900 13.248299
						CHANNELS 3 Xrotation Yrotation Zrotation
						End Site
						{
							OFFSET 0.000000 13.262440 0.000000
						}
					}
				}
			}
		}
	}
}
MOTION
Frames: 8
Frame Time: 0.033333
-0.384549 71.819824 -0.075027 -5.398678 -46.211984 -0.238057 9.452221 7.171228 -1.616262 2.187715 0.989899 -0.915631 2.202830 0.982770 -0.894152 0.084653 13.220562 4.538678 8.920925 20.138140 -4.130235 0.000001 -0.000000 -0.000001 1.117176 3.546351 -8.633310 -53.487017 4.935510 -51.502997 0.000207 -106.358107 0.000213 1.988595 -7.706148 -15.869275 0.255313 3.378216 -45.814358 5.654092 5.847762 -88.067448 2.162140 4.544813 -50.866372 -0.000002 0.000001 0.000002 -6.141203 -11.690804 -6.761681 9.914106 42.595529 3.409874 -0.422811 8.108088 27.509091 -0.000000 -0.000001 0.000001 3.036127 13.027201 -5.371407 -48.713698 27.172827 83.457064 0.000109 105.988294 -0.000116 -8.345360 17.548098 8.775686 -7.341093 13.749663 7.412319 9.855751 -44.489107 -3.903273 -0.115787 -14.513076 -28.973867 -0.000002 -0.000001 -0.000000 -0.124374 -2.384783 45.108857 4.500581 -4.654546 88.071157 1.723229 -3.618378 50.920112 0.000001 -0.000002 0.000003 -31.861439 6.395805 19.963999 59.337569 -8.188267 3.970975 -25.244731 -6.905778 -16.448620 -1.594028 -0.000004 -0.000004 -0.000000 -0.000002 -0.000000 -18.986244 -11.114488 -32.040872 59.475102 -5.224265 -6.737406 -30.568863 -9.909656 26.194288 -0.013002 -0.000005 -0.000002 -0.000000 0.000000 0.000000 
-0.536452 72.264359 -0.623839 -4.107149 -43.692956 0.342259 10.070735 6.899347 -1.550888 3.000041 1.159406 -0.950134 3.014425 1.151116 -0.931374 0.606401 12.159028 4.353182 6.183484 18.304355 -2.830243 -0.000001 -0.000000 0.000000 1.345994 1.165143 -8.550361 -54.563362 3.107553 -52.381083 -0.000152 -106.260866 -0.000168 0.501037 -9.863417 -10.634908 0.255314 3.378217 -45.814354 5.654093 5.847759 -88.067448 2.162140 4.544817 -50.866369 -0.000001 0.000001 0.000001 -6.141205 -11.690802 -6.761674 9.914112 42.595525 3.409877 -0.422814 8.108083 27.509094 -0.000000 -0.000003 0.000002 3.763102 13.102407 -4.880109 -51.621081 27.562520 83.043585 0.000069 103.756707 -0.000065 -6.347337 19.752506 1.585289 -7.341089 13.749664 7.412319 9.855748 -44.489110 -3.903272 -0.115785 -14.513080 -28.973867 0.000002 0.000002 -0.000004 -0.124373 -2.384780 45.108857 4.500581 -4.654546 88.071157 1.723228 -3.618376 50.920112 0.000000 0.000003 0.000000 -33.624027 5.253269 19.561628 57.794308 -9.293732 4.372235 -23.095653 -7.239353 -16.409236 -1.594028 0.000002 -0.000004 -0.000000 -0.000000 -0.000000 -17.885789 -12.097576 -30.457309 58.538362 -5.493134 -5.955751 -30.413398 -12.129736 25.333523 -0.013002 -0.000005 -0.000002 0.000000 -0.000000 -0.000000 
-0.819059 72.748283 -1.254698 -2.963976 -40.807884 1.017980 10.489727 6.728233 -1.328116 3.793210 1.444006 -0.860721 3.807132 1.433878 -0.844121 1.087606 10.917759 4.198276 3.431549 15.918946 -1.664698 0.000001 -0.000000 -0.000001 1.746526 -1.765764 -8.724837 -55.121215 0.889897 -53.608516 -0.000049 -106.561859 -0.000053 -0.217226 -12.040366 -4.318853 0.255313 3.378221 -45.814358 5.654093 5.847761 -88.067448 2.162140 4.544818 -50.866372 -0.000001 0.000003 -0.000000 -6.141202 -11.690802 -6.761676 9.914105 42.595529 3.409876 -0.422811 8.108081 27.509092 -0.000000 0.000001 0.000001 4.660000 13.478022 -4.155619 -54.724702 28.138510 82.473400 0.000607 101.551867 -0.000602 -3.583323 21.101246 -6.137768 -7.341090 13.749661 7.412319 9.855750 -44.489107 -3.903273 -0.115787 -14.513071 -28.973864 0.000001 0.000001 -0.000001 -0.124373 -2.384782 45.108857 4.500579 -4.654547 88.071157 1.723232 -3.618380 50.920116 0.000002 -0.000001 0.000002 -35.139599 4.130175 18.682763 55.703399 -10.479515 4.912532 -20.637097 -7.530563 -16.592630 -1.594028 -0.000002 -0.000004 -0.000000 -0.000000 0.000000 -16.798210 -13.454052 -29.118872 57.603521 -5.581640 -5.164363 -30.487338 -14.428332 24.266571 -0.013002 -0.000004 -0.000002 -0.000000 0.000000 -0.000000 
-1.218728 73.141617 -1.835915 -2.516374 -37.772691 1.648414 10.761804 6.692881 -0.962656 4.566608 1.864110 -0.635556 4.580550 1.850912 -0.620768 1.340992 9.540013 4.007190 1.135605 13.010798 -0.830357 -0.000000 -0.000001 -0.000000 2.251077 -4.894749 -9.144811 -54.734817 -1.599558 -55.405890 0.000055 -107.504630 0.000063 -0.039626 -14.052184 2.936207 0.255312 3.378218 -45.814351 5.654095 5.847759 -88.067448 2.162138 4.544817 -50.866372 -0.000000 -0.000001 0.000002 -6.141203 -11.690802 -6.761677 9.914106 42.595525 3.409874 -0.422816 8.108079 27.509091 0.000000 -0.000003 0.000001 5.857361 14.297897 -2.529596 -57.859659 29.181830 81.724819 0.000868 99.213258 -0.000865 -0.196802 21.689117 -13.985898 -7.341090 13.749663 7.412319 9.855750 -44.489110 -3.903274 -0.115786 -14.513080 -28.973864 -0.000000 0.000001 -0.000000 -0.124373 -2.384781 45.108864 4.500581 -4.654546 88.071157 1.723228 -3.618380 50.920116 -0.000000 -0.000000 -0.000001 -35.935418 3.260705 17.391009 53.346790 -10.846048 5.480291 -18.323104 -8.679991 -17.259266 -1.594028 -0.000000 -0.000004 -0.000000 -0.000000 -0.000000 -15.511436 -15.140936 -28.595512 56.911407 -5.859122 -4.427734 -30.900589 -16.129483 23.517246 -0.013002 -0.000004 -0.000003 0.000000 -0.000000 0.000001 
-1.701693 73.301552 -2.292300 -3.108292 -34.808270 2.303904 10.963533 6.807690 -0.563854 5.367066 2.426149 -0.334341 5.381778 2.408215 -0.320263 1.018811 8.052742 3.661005 -0.418063 9.412104 -0.193025 -0.000000 0.000000 0.000002 2.762031 -7.798697 -9.745590 -53.418244 -3.961957 -58.135661 0.000202 -109.109772 0.000191 1.114996 -16.144467 9.803138 0.255313 3.378217 -45.814354 5.654093 5.847760 -88.067448 2.162139 4.544816 -50.866376 -0.000000 -0.000001 -0.000002 -6.141203 -11.690805 -6.761676 9.914108 42.595529 3.409870 -0.422813 8.108080 27.509089 -0.000001 0.000001 0.000001 7.373551 15.580601 0.463702 -60.919810 30.748098 80.955698 0.000776 96.935008 -0.000768 3.721573 21.555534 -22.104121 -7.341091 13.749661 7.412319 9.855751 -44.489113 -3.903273 -0.115786 -14.513080 -28.973867 -0.000001 -0.000001 -0.000001 -0.124373 -2.384784 45.108864 4.500578 -4.654550 88.071157 1.723230 -3.618380 50.920116 0.000001 0.000001 0.000000 -35.717774 2.728759 15.578864 51.217673 -10.705587 5.956896 -16.497530 -10.255594 -18.047412 -1.594028 -0.000000 -0.000004 -0.000000 -0.000000 -0.000000 -13.966775 -17.076441 -29.331810 56.878646 -5.805144 -3.760786 -31.900122 -17.440709 22.998937 -0.013002 -0.000006 -0.000002 -0.000000 0.000000 -0.000000 
-2.174299 73.138474 -2.515263 -4.807622 -31.875093 2.981088 11.037651 7.021487 -0.016705 6.174412 3.079822 0.078537 6.190178 3.057087 0.094596 -0.133717 6.436697 2.980296 -1.085024 4.697425 0.476644 -0.000002 -0.000000 -0.000000 3.247909 -10.246138 -10.630662 -51.262554 -6.104701 -61.982416 -0.000061 -110.956935 -0.000057 3.651768 -18.919747 15.405751 0.255312 3.378217 -45.814354 5.654094 5.847760 -88.067448 2.162139 4.544816 -50.866379 0.000000 -0.000001 -0.000001 -6.141204 -11.690803 -6.761676 9.914105 42.595522 3.409874 -0.422812 8.108080 27.509094 -0.000002 0.000000 -0.000001 9.036325 15.987694 3.167845 -63.110176 31.668824 81.155898 0.000023 95.876431 -0.000017 8.405523 20.904334 -30.296496 -7.341091 13.749665 7.412319 9.855753 -44.489110 -3.903275 -0.115788 -14.513073 -28.973864 -0.000001 -0.000002 -0.000001 -0.124373 -2.384780 45.108864 4.500581 -4.654546 88.071157 1.723226 -3.618380 50.920112 0.000001 -0.000000 -0.000001 -34.592135 2.295275 13.129469 49.948859 -10.595382 6.343863 -15.385799 -11.578899 -18.571392 -1.594028 -0.000000 -0.000004 -0.000000 -0.000000 -0.000000 -12.000081 -19.374243 -31.486021 57.470216 -5.590064 -3.158894 -33.377936 -18.185175 23.049839 -0.013002 -0.000004 -0.000003 0.000000 0.000001 -0.000000 
-2.585575 72.541344 -2.391130 -7.538401 -28.661765 3.491973 10.773346 7.185218 0.753345 6.806326 3.679913 0.704190 6.823579 3.650605 0.726078 -1.966477 4.647978 2.079275 -0.521385 -1.117896 1.264688 -0.000000 -0.000001 -0.000002 3.627148 -11.757337 -11.966115 -48.015335 -9.477866 -66.630135 -0.000006 -112.677221 -0.000004 8.730902 -21.953024 21.636735 0.255312 3.378219 -45.814358 5.654092 5.847760 -88.067455 2.162137 4.544816 -50.866376 -0.000000 -0.000001 -0.000002 -6.141202 -11.690802 -6.761677 9.914107 42.595529 3.409872 -0.422812 8.108080 27.509092 -0.000000 0.000001 -0.000001 9.793880 13.343207 4.357520 -62.378055 31.324484 82.088342 0.000498 97.456315 -0.000487 13.630750 20.509503 -37.428142 -7.341092 13.749663 7.412319 9.855754 -44.489110 -3.903275 -0.115788 -14.513076 -28.973867 -0.000000 0.000002 -0.000000 -0.124373 -2.384782 45.108857 4.500581 -4.654548 88.071157 1.723227 -3.618379 50.920116 0.000001 -0.000000 0.000001 -33.042597 1.574051 10.146733 50.278682 -10.508324 6.854810 -15.276526 -12.711965 -18.843985 -1.594028 -0.000003 -0.000004 0.000000 -0.000000 0.000000 -8.974606 -22.099080 -34.281990 58.375673 -5.225332 -2.762219 -35.164570 -19.141320 23.828283 -0.013002 -0.000005 -0.000003 -0.000000 -0.000001 -0.000000 
-2.981504 71.601906 -1.835323 -11.304112 -25.089498 3.357728 9.966821 7.058501 1.720476 6.988722 4.016388 1.484604 7.007508 3.979834 1.511238 -3.687068 2.693233 1.620108 1.956515 -6.891977 2.339905 -0.000000 0.000001 0.000000 3.630958 -11.446713 -13.444989 -43.401716 -15.692513 -71.097276 0.000065 -114.893563 0.000071 16.767937 -22.785675 30.960100 0.255313 3.378218 -45.814354 5.654094 5.847760 -88.067448 2.162139 4.544816 -50.866372 -0.000001 -0.000000 -0.000001 -6.141202 -11.690802 -6.761677 9.914106 42.595529 3.409874 -0.422813 8.108085 27.509096 0.000000 0.000003 -0.000000 8.567278 7.786544 5.777362 -57.766844 31.887503 82.212644 0.000003 101.410400 -0.000018 18.095138 20.996244 -42.044957 -7.341090 13.749662 7.412321 9.855749 -44.489107 -3.903273 -0.115787 -14.513080 -28.973867 -0.000001 -0.000002 0.000001 -0.124372 -2.384783 45.108861 4.500580 -4.654546 88.071157 1.723227 -3.618379 50.920116 0.000001 -0.000001 -0.000000 -31.109183 0.469850 7.221621 52.424584 -10.416640 7.746733 -16.381502 -13.867978 -19.002816 -1.594028 -0.000002 -0.000004 -0.000000 0.000000 -0.000000 -3.696054 -25.359417 -35.959054 58.617728 -4.856667 -2.826803 -36.781006 -21.091788 25.240662 -0.013002 -0.000006 -0.000002 -0.000000 -0.000000 0.000000 
